<svg viewBox="0 0 100 100" width="100" height="100" xmlns="http://www.w3.org/2000/svg" aria-label="Loran Agricultural Investment">
  <defs><linearGradient id="lr" x1="0" y1="0" x2="1" y2="1"><stop offset="0%" stop-color="#0a4d3a"></stop><stop offset="100%" stop-color="#15846a"></stop></linearGradient></defs>
  <g><line x1="88.0" y1="50.0" x2="96.0" y2="50.0" stroke="#a3d9b1" stroke-width="3" stroke-linecap="round" opacity="0.7"></line><line x1="76.9" y1="76.9" x2="82.5" y2="82.5" stroke="#a3d9b1" stroke-width="3" stroke-linecap="round" opacity="0.7"></line><line x1="50.0" y1="88.0" x2="50.0" y2="96.0" stroke="#a3d9b1" stroke-width="3" stroke-linecap="round" opacity="0.7"></line><line x1="23.1" y1="76.9" x2="17.5" y2="82.5" stroke="#a3d9b1" stroke-width="3" stroke-linecap="round" opacity="0.7"></line><line x1="12.0" y1="50.0" x2="4.0" y2="50.0" stroke="#a3d9b1" stroke-width="3" stroke-linecap="round" opacity="0.7"></line><line x1="23.1" y1="23.1" x2="17.5" y2="17.5" stroke="#a3d9b1" stroke-width="3" stroke-linecap="round" opacity="0.7"></line><line x1="50.0" y1="12.0" x2="50.0" y2="4.0" stroke="#a3d9b1" stroke-width="3" stroke-linecap="round" opacity="0.7"></line><line x1="76.9" y1="23.1" x2="82.5" y2="17.5" stroke="#a3d9b1" stroke-width="3" stroke-linecap="round" opacity="0.7"></line></g>
  <circle cx="50" cy="50" r="34" fill="url(#lr)"></circle>
  <path d="M 50 22 C 30 28 22 50 28 72 C 50 70 70 50 72 28 C 64 24 56 22 50 22 Z" fill="#a3d9b1" opacity="0.95"></path>
  <path d="M 50 22 Q 48 50 28 72" fill="none" stroke="#15846a" stroke-width="1.5" stroke-linecap="round" opacity="0.7"></path>
</svg>